<svg xmlns="http://www.w3.org/2000/svg" width="422.96" height="76.502" viewBox="0 0 422.96 76.502"><path opacity=".92" enable-background="new" d="M422.96 76.502c-3.18-.33-6-.64-8.83-.899-2.52-.24-5.051-.511-7.58-.601-3.971-.13-7.939.021-11.899-.188-4.479-.23-8.95-.78-13.431-1.08-4.189-.28-8.398-.392-12.6-.61-1.932-.11-3.86-.31-5.801-.44-2.25-.14-4.5-.199-6.75-.39-2.58-.22-5.141-.54-7.71-.81-2.96-.312-5.921-.59-8.87-.92-3.16-.352-6.311-.881-9.479-1.092-3.33-.22-6.681-.27-10.011-.18-4.069.102-8.109.271-12.16-.25-3.6-.45-7.209-.78-10.819-1.08-5.319-.43-10.659-.64-15.96-1.229-9.5-1.062-19.02-1.602-28.58-1.65-5.25-.04-10.5.16-15.75.15-4.471-.012-8.939-.131-13.42-.262-2.301-.068-4.58.211-6.88.2-5.54-.028-11.09.17-16.62 0-8.63-.271-17.25-.85-25.88-1.149-5.65-.199-11.31-.119-16.97-.189-5.63-.07-11.26-.13-16.88-.3-4.54-.14-9.08-.32-13.6-.671-5.83-.449-11.65-1.079-17.47-1.659-4.6-.45-9.18-1.03-13.77-1.41-2.24-.188-4.51-.04-6.77-.09-2.85-.06-5.71-.181-8.57-.229-1.59-.029-3.19.029-4.78.061l-17.59.24c-.12 0-.26.05-.35 0-1.57-.932-3.24.068-4.84-.23-.69-.13-1.53.25-1.96-.68-.04-.09-.62-.08-.69.029-.51.851-1.3.659-2.04.619-4.64-.31-9.29-.58-13.93-.938-5.59-.44-11.17-1.07-16.77-1.41-3.03-.19-6.09.03-9.14.08-2.34.04-4.53-.681-6.66-1.479-.47-.181-.71-1.439-.76-2.221-.2-3.148-.38-6.32-.39-9.479-.01-2.222.39-4.45.39-6.67 0-3.79-.25-7.57-.26-11.36-.01-3.93.15-7.85.23-11.78.01-.76.09-1.53-.01-2.28-.14-1.1.4-1.62 1.34-1.91 4.63-1.39 9.3-2.3 14.17-2.49 4.52-.17 9.07.28 13.6-.73 2.81-.63 5.79-.67 8.69-.65 3.59.02 7.08-.47 10.51-1.45 4.39-1.24 8.86-1.9 13.4-2.33 4.87-.47 9.72-1.28 14.59-1.72 4.31-.4 8.63-.67 12.95-.69 5.49-.03 10.98.21 16.47.4 5.79.2 11.58.51 17.38.72 4.72.18 9.44.32 14.16.4 3.87.06 7.74-.1 11.61.04 2.57.1 5.13.56 7.69.87 3.27.39 6.53.84 9.8 1.17 5.45.55 10.9 1.08 16.36 1.52 4.64.38 9.29.71 13.95.92 2.69.12 5.4-.08 8.1-.09 3.69-.01 7.389.09 11.081.04 4.738-.06 9.479-.27 14.229-.34 3.21-.04 6.431.08 9.641.1l1.899-.14c3.931-.03 7.86 0 11.79-.07 7.789-.14 15.59-.31 23.38-.52 2.34-.06 4.67-.36 7.011-.38 2.789-.03 5.579.24 8.359.18 6.699-.14 13.369.29 20.021.97 4.119.43 8.25.64 12.379.91 4.95.33 9.91.71 14.881.9 5.76.22 11.529.25 17.289.37 3.771.08 7.551.24 11.32.26 1.979 0 3.96-.31 5.939-.32 5.72-.02 11.439 0 17.16.07 3.72.04 7.439.12 11.16.34 3.039.17 6.029.68 8.799 2.16 1.771.94 2.75 2.42 3.111 4.28.898 4.61 1.777 9.22 2.51 13.85.43 2.75.459 5.56.85 8.32.689 4.93 1.57 9.83 2.289 14.759.801 5.541 1.57 11.101 2.24 16.671.311 2.587.333 5.217.502 8.136z"/><g fill="#fff"><path stroke="#fff" d="M25.401 22.833s-1.167-2.667-5.167-1.167-5 1.167-8.167 7.667-.667 9 0 9.668c.667.666 1.767 2.666 5.883 2.832 4.116.166 8.95-2 8.95-2l-1.626-4.209s-4.688 4.25-7.708 3.543c-3.197-.748-5.167-3.5-4.167-6s.833-2.5 1.5-3.667 4.904-4.952 7-5.5c1.438-.376 2.501.624 2.501.624l1.001-1.791z"/><path d="M42.337 27.874s-.812-3.438-1.625-3.938-2.75-1.062-4.5.312-3 2.688-3.125 4.438c-.125 1.75 0 3.938 1.75 5.312s6.625 4.251 7.125 5.188c.699 1.311-.75 3.25-2.25 3.25-1.973 0-4.438-3.125-4.438-3.125l-1.562 3.125s1.938 3.062 4.812 2.75c1.078-.117 2.191-.367 3.182-.748 1.65-.635 2.959-1.635 3.193-3.002.375-2.188.812-4.438 0-5.188s-3.188-2.125-3.875-2.25-2.75-1-3.25-1.812-.934-2.25-.75-2.938c.25-.938.812-2.188 1.562-1.938l1.375.875 2.376-.311z"/><path d="M62.587 24.874s-.562-2.5-1.25-3.312-5-.812-6.5.562-3.062 2.688-3.25 5.062c-.188 2.374-1.062 3.036 3.188 7.111 4.25 4.077 3.625 2.326 3.938 3.202.313.875-.389 3.938-1.726 3.688s-2.337-1-3.337-1.062l-1.812-.5-.062 3.175s4 2.824 7.5.699 3.75-3.812 3.75-4.125.875-2.188-.812-4-5.812-4.438-6.25-5.875c-.438-1.437-.584-2.542-.147-3.104s3.272-1.146 3.522-.708l3.248-.813z"/><path d="M70.337 43.749s-4.75 8.062-4.688 8.5.562 1.688 1.438 1.438 6.75-7.188 6.688-8.188-.938-2.062-3.438-1.75z"/></g><g fill="#fff"><path d="M111.02 37.249c-.5-4 .23-8.25-5.62-11.13-3.56-1.75-6.38-1.87-8.38-1.5-2 .38-2.74.88-2.74.88l-.5 18.189s12.12 2.521 14.87.602c2.75-1.91 2.87-3.041 2.37-7.041zm-3.37 1.25c0 1.621-2.75 2-4.63 2.5-1.87.5-5.12.381-5.74 0-.63-.379 1.24-13.62 1.24-13.62s1.38-.88 5.76 1c4.37 1.87 3.37 8.5 3.37 10.12z"/><path d="M121.78 35.249c0-.5 3.24-1.18 3.62-1.65.38-.479 2.38-6.1.88-8.6s-3.26-3.88-6.13-3.38l-3.87 1.88-.5 19.301h2.24s-.12-4.551.63-4.301 6.87 5.391 7.13 5.189c.24-.189 2-2.311 2-2.311s-6-5.628-6-6.128zm-3.26-5l1-5.8s3.88.67 4.63 1.8-.5 3.37-1.75 4h-3.88z"/><path d="M132.9 26.249s-1.5 17.014 3.75 17.443c5.25.432 6.125-1.068 6.75-2.193s2.125-10.875 1.125-15.25h-1.75s.014 14.367-3.994 13.625c-3.381-.625-3.006-3.625-2.631-13.625h-3.25z"/><path d="M162.9 27.749s-2-3.5-4.75-2.375-5.875 2.875-7 5.125-1.5 6.625-.875 8.75 1.875 3.643 4.5 4.445c2.625.805 5.375.68 7.375-1.82s1.875-6.48 1.25-6.865l-7.125-.279-.5 1.146 4.125.875s1.833 4.519-3.01 5.001c-4.844.48-4.615-6.251-3.99-7.626l1-2.75s3.875-3.875 5.125-3.625l3.875-.002z"/><path d="M184.775 28.874l-2.375-3.723s-3.25-.723-5.375 0-4.25 2.098-4.75 3.723-.25 5.414 1.75 5.77c2 .356 6.125.48 6.5 1.98s.875 4-1.25 4.75-4.625-2.125-5-2.375-1.25-.375-1.125.5 2.125 4.393 3.5 4.195c1.375-.195 6.25-.82 7-2.57s1.625-6.625-2.25-7.375-6.5-1.5-6.375-2.75 1.653-3.375 3.389-3.125c1.736.25 3.986 1.75 4.611 1.75l1.75-.75z"/><path d="M221.9 36.009l-1.5-1.74-2.88 3.48-2.5-2.5s.63-.75 2.38-3-.5-5.87-2.899-6.63c-2.399-.74-4.979.88-6.351 1.5-1.37.63-.87 1.88-1.04 3.13l3.29 4.75c-2.75 2.381-3.5 5.121-3.25 6.25.25 1.131 2.5 1.75 5.25 1.75l4.88-2.619 3.12 2.42 1.5-1.551-3.44-2.5 3.44-2.74zm-12-6.26c.88-.87 1.61-1.87 2.74-1.5 1.14.37 2.33 1.42 1.858 2.27-.479.86-1.858 2.36-1.858 2.36s-3.62-2.26-2.74-3.13zm.625 10.875c-.788-.635 2.614-3.221 2.614-3.221s1.511.217 2.141 1.596c.62 1.381-3.365 2.746-4.755 1.625z"/></g><g fill="#fff"><path d="M259.78 35.999v-1s4.37.75 4.87-2 .25-6.14-2.63-7.57c-2.87-1.43-5.74-1.57-8.37 0 0 0 .37 7.95.75 9.69.38 1.76-.38 6.501-.38 7.13 0 .631 1 .25 1.88 0l.88-4.75s1.62.121 2.12.881c.5.74 4.5 5.32 4.5 5.32s2.5-1.201 2.5-1.58c0-.371-5.12-6.241-6.12-6.121zm-3.26-3.62v-5.88c1.63-.88 3.38.25 4.76 1.25 1.37 1 .37 3.87-.76 4.63-1.12.74-4 0-4 0z"/><path d="M279.23 29.959c-.75-.88-1.25-2.71-5.33-2.46 0 0-3.83 2.67-4.42 5.42-.58 2.75-1.16 4.58 0 6.5 1.17 1.91 2.34 3.33 3.59 3.58s5.91-.92 6.66-5.5.25-6.66-.5-7.54zm-1.5 7.21c-.25 1.33-2.5 3.16-3.25 3.16s-1.41-.83-2.25-1.58c-.83-.75-1.08-3.42-.66-5.33.41-1.92 2.04-2.93 3.41-3.42.819-.29 1.92 1.17 2.75 2.25.84 1.08.25 3.58 0 4.92z"/><path d="M295.067 27.917s-2.666-3.5-4.833-2.667-5.584 2.166-6.834 7.75c-1.25 5.585 3.084 6.667 4.167 7.083s3.379 1.471 4.5 1.168c1.143-.311 3.25-3 3-3.668-.25-.667-1.667-1-1.667-1s-1.332 2.334-3.416 1c-2.084-1.333-3.25-2.128-3.167-4.396.083-2.27 1.001-4.854 3.167-4.687l4 1.333 1.083-1.916z"/><path d="M301.984 24.304s-.751 3.03-.834 4.363-.084 5.091-.417 6.587l-1.249 6.997 3.083.549v-4.299s.25-.75 1.25-.084c1 .668 6.417 5.283 6.417 5.283l2-2.396-5.75-4.137 5.416-7.75-.416-3-6.917 5.917s-.333.917-.333-1.083l.583-6.946-2.833-.001z"/><path d="M318.317 21.749l-.334 7.417s1 1 1.167.667 1.584-7.083 1.417-7.583-1.5-.917-2.25-.501z"/><path d="M328.15 24.304s-1 9.528-1.25 10.362l-.833 5.333s1.833.75 2.083 0 1.251-8.25 1.667-8.5 1.083.51 2.083 1.713l5.333 7.703s1.417.668 1.667 0c.25-.666 3.25-14.52 2.5-15.176-.75-.656-1.75 0-1.75 0l-2.583 8.262s-2-1.585-2.75-2.919l-3.75-6.779h-2.417v.001z"/><path d="M349.067 20l-1.333 7.25s.666.25 1.333-.333 2.916-5.5 2.583-5.917l-2.583-1z"/><path d="M361.07 36.169c.33-.17 2.58.25 3.08-1.5s2.33-5.42-1.42-6.42-7.66-2.25-7.75 3.75c0 0-.66 9.42-1.58 11.34 0 0 2.08 1.5 2.17.75.08-.75 1-5.789 1.75-5.939s3.83 3.02 6.25 6.15c0 0 1.41-.07 1.33-.6-.08-.531-2.67-4.201-3-4.861-.33-.67-1.17-2.5-.83-2.67zm-4.25-2.17c-.59-.5.33-3.33.33-3.33s.33-1.58.83-1.92c.5-.33 4.59 1.5 4.75 1.92.17.42-.5 2.67-1.83 3.33-1.33.67-3.5.5-4.08 0z"/><path d="M377.84 34.06c-.562-3.621-3.631-3.681-3.631-3.681-.99-.21-2.311.81-3.119 1.24-.812.44-2.69 5.569-2.881 6.44-.189.879-.75 4.561 1.131 6.24 1.869 1.67 5.369.199 7.619-1.92 2.25-2.13 1.441-4.691.881-8.319zm-3.131 7.15c-.689.648-2.75 1.35-3.391 1.289-.63-.061-1.17-.939-1.54-3-.38-2.061 3.12-6.38 3.12-6.38 1.939-.62 3 1.069 3.311 3.26.311 2.181-.809 4.181-1.5 4.831z"/><path d="M385.775 28.312l-2.562 13.75 8.688 1.625v-2.125s-3.875-.625-4.344-1.438.156-7.375.344-8.375l.562-3.438s-1.752-.874-2.688.001z"/><path d="M397.711 28.374l-1.438 15.312s6.562.271 7.438.082c.877-.188 1.75-3.27 1.75-3.27s-4.719-.301-5.75-.875c-.635-.355.057-6.331.492-9.564.094-.697.517-1.364.32-1.687-.248-.41-2.812.002-2.812.002z"/></g></svg>