<svg xmlns="http://www.w3.org/2000/svg" width="395.462" height="33.72" viewBox="0 0 395.462 33.72"><g fill="#fff"><path stroke="#fff" d="M15.401 2.833s-1.167-2.667-5.167-1.167-5 1.167-8.167 7.667-.667 9 0 9.667 1.767 2.667 5.883 2.833l8.95-2-1.626-4.209s-4.688 4.25-7.708 3.543c-3.197-.749-5.167-3.5-4.167-6s.833-2.5 1.5-3.667 4.904-4.952 7-5.5c1.438-.376 2.501.624 2.501.624l1.001-1.791z"/><path d="M32.337 7.874s-.812-3.438-1.625-3.938-2.75-1.062-4.5.312-3 2.688-3.125 4.438 0 3.938 1.75 5.312 6.625 4.25 7.125 5.188c.699 1.311-.75 3.25-2.25 3.25-1.973 0-4.438-3.125-4.438-3.125l-1.562 3.125s1.938 3.062 4.812 2.75c1.078-.117 2.191-.366 3.182-.747 1.65-.635 2.959-1.636 3.193-3.003.375-2.188.812-4.438 0-5.188s-3.188-2.125-3.875-2.25-2.75-1-3.25-1.812-.934-2.249-.75-2.938c.25-.938.812-2.188 1.562-1.938l1.375.875 2.376-.311z"/><path d="M52.587 4.874s-.562-2.5-1.25-3.312-5-.812-6.5.562-3.062 2.688-3.25 5.062-1.062 3.035 3.188 7.111 3.625 2.326 3.938 3.201-.389 3.938-1.726 3.688-2.337-1-3.337-1.062l-1.812-.5-.062 3.175s4 2.825 7.5.7 3.75-3.812 3.75-4.125.875-2.188-.812-4-5.812-4.438-6.25-5.875-.584-2.542-.147-3.104 3.272-1.146 3.522-.708l3.248-.813z"/><path d="M60.337 23.749s-4.75 8.062-4.688 8.5.562 1.688 1.438 1.438 6.75-7.188 6.688-8.188-.938-2.062-3.438-1.75z"/></g><g fill="#fff"><path d="M101.02 17.249c-.5-4 .23-8.25-5.62-11.13-3.56-1.75-6.38-1.87-8.38-1.5-2 .38-2.74.88-2.74.88l-.5 18.19s12.12 2.52 14.87.6c2.75-1.91 2.87-3.04 2.37-7.04zm-3.37 1.25c0 1.62-2.75 2-4.63 2.5-1.87.5-5.12.38-5.74 0-.63-.38 1.24-13.62 1.24-13.62s1.38-.88 5.76 1c4.37 1.87 3.37 8.5 3.37 10.12z"/><path d="M111.78 15.249c0-.5 3.24-1.18 3.62-1.65.38-.48 2.38-6.1.88-8.6s-3.26-3.88-6.13-3.38l-3.87 1.88-.5 19.3h2.24s-.12-4.55.63-4.3 6.87 5.39 7.13 5.19c.24-.19 2-2.311 2-2.311s-6-5.629-6-6.129zm-3.26-5l1-5.8s3.88.67 4.63 1.8-.5 3.37-1.75 4h-3.88z"/><path d="M122.9 6.249s-1.5 17.014 3.75 17.444 6.125-1.069 6.75-2.194 2.125-10.875 1.125-15.25h-1.75s.013 14.366-3.994 13.625c-3.381-.625-3.006-3.625-2.631-13.625h-3.25z"/><path d="M152.9 7.749s-2-3.5-4.75-2.375-5.875 2.875-7 5.125-1.5 6.625-.875 8.75 1.875 3.643 4.5 4.446 5.375.679 7.375-1.821 1.875-6.48 1.25-6.865l-7.125-.279-.5 1.145 4.125.875s1.833 4.519-3.01 5-4.615-6.25-3.99-7.625l1-2.75s3.875-3.875 5.125-3.625l3.875-.001z"/><path d="M174.775 8.874l-2.375-3.723s-3.25-.723-5.375 0-4.25 2.098-4.75 3.723-.25 5.414 1.75 5.77 6.125.48 6.5 1.98.875 4-1.25 4.75-4.625-2.125-5-2.375-1.25-.375-1.125.5 2.125 4.393 3.5 4.196 6.25-.821 7-2.571 1.625-6.625-2.25-7.375-6.5-1.5-6.375-2.75 1.653-3.375 3.389-3.125 3.986 1.75 4.611 1.75l1.75-.75z"/><path d="M211.9 16.009l-1.5-1.74-2.88 3.48-2.5-2.5s.63-.75 2.38-3-.5-5.87-2.9-6.63c-2.399-.74-4.979.88-6.35 1.5-1.37.63-.87 1.88-1.04 3.13l3.29 4.75c-2.75 2.38-3.5 5.12-3.25 6.25s2.5 1.75 5.25 1.75l4.88-2.62 3.12 2.42 1.5-1.55-3.44-2.5 3.44-2.74zm-12-6.26c.88-.87 1.61-1.87 2.74-1.5 1.14.37 2.33 1.42 1.859 2.27-.479.86-1.859 2.36-1.859 2.36s-3.62-2.26-2.74-3.13zm.625 10.875c-.788-.635 2.614-3.221 2.614-3.221s1.511.216 2.141 1.596c.62 1.38-3.365 2.745-4.755 1.625z"/></g><g fill="#fff"><path d="M249.78 15.999v-1s4.37.75 4.87-2 .25-6.14-2.63-7.57c-2.87-1.43-5.74-1.57-8.37 0 0 0 .37 7.95.75 9.69.38 1.76-.38 6.5-.38 7.13s1 .25 1.88 0l.88-4.75s1.62.12 2.12.88c.5.74 4.5 5.32 4.5 5.32s2.5-1.2 2.5-1.58c0-.37-5.12-6.24-6.12-6.12zm-3.26-3.62v-5.88c1.63-.88 3.38.25 4.76 1.25 1.37 1 .37 3.87-.76 4.63-1.12.74-4 0-4 0z"/><path d="M269.23 9.959c-.75-.88-1.25-2.71-5.33-2.46 0 0-3.83 2.67-4.42 5.42-.58 2.75-1.16 4.58 0 6.5 1.17 1.91 2.34 3.33 3.59 3.58s5.91-.92 6.66-5.5.25-6.66-.5-7.54zm-1.5 7.21c-.25 1.33-2.5 3.16-3.25 3.16s-1.41-.83-2.25-1.58c-.83-.75-1.08-3.42-.66-5.33.41-1.92 2.04-2.93 3.41-3.42.82-.29 1.92 1.17 2.75 2.25.84 1.08.25 3.58 0 4.92z"/><path d="M285.067 7.917s-2.666-3.5-4.833-2.667-5.584 2.166-6.834 7.75 3.084 6.667 4.167 7.083 3.379 1.47 4.5 1.167c1.143-.31 3.25-3 3-3.667l-1.667-1s-1.332 2.333-3.416 1-3.25-2.128-3.167-4.397 1.001-4.853 3.167-4.686l4 1.333 1.083-1.916z"/><path d="M291.984 4.304s-.751 3.03-.834 4.363-.084 5.091-.417 6.587l-1.249 6.996 3.083.549v-4.299s.25-.75 1.25-.083l6.417 5.283 2-2.396-5.75-4.137 5.416-7.75-.416-3-6.917 5.917s-.333.917-.333-1.083l.583-6.946h-2.833z"/><path d="M308.317 1.749l-.334 7.417s1 1 1.167.667 1.584-7.083 1.417-7.583-1.5-.917-2.25-.501z"/><path d="M318.15 4.304s-1 9.528-1.25 10.362l-.833 5.333s1.833.75 2.083 0 1.251-8.25 1.667-8.5 1.083.51 2.083 1.713l5.333 7.703s1.417.667 1.667 0 3.25-14.52 2.5-15.176h-1.75l-2.583 8.262s-2-1.585-2.75-2.919l-3.75-6.779h-2.417z"/><path d="M339.067 0l-1.333 7.25s.666.25 1.333-.333 2.916-5.5 2.583-5.917l-2.583-1z"/><path d="M351.07 16.169c.33-.17 2.58.25 3.08-1.5s2.33-5.42-1.42-6.42-7.66-2.25-7.75 3.75c0 0-.66 9.42-1.58 11.34 0 0 2.08 1.5 2.17.75.08-.75 1-5.79 1.75-5.94s3.83 3.02 6.25 6.15c0 0 1.41-.069 1.33-.6s-2.67-4.2-3-4.86c-.33-.67-1.17-2.5-.83-2.67zm-4.25-2.17c-.59-.5.33-3.33.33-3.33s.33-1.58.83-1.92c.5-.33 4.59 1.5 4.75 1.92.17.42-.5 2.67-1.83 3.33-1.33.67-3.5.5-4.08 0z"/><path d="M367.84 14.059c-.561-3.62-3.631-3.68-3.631-3.68-.989-.21-2.31.81-3.119 1.24-.811.44-2.69 5.57-2.881 6.44-.189.88-.75 4.56 1.131 6.24 1.869 1.67 5.369.2 7.619-1.92 2.25-2.13 1.441-4.69.881-8.32zm-3.131 7.15c-.689.65-2.75 1.35-3.39 1.29-.63-.06-1.17-.94-1.54-3-.38-2.06 3.12-6.38 3.12-6.38 1.94-.62 3 1.07 3.31 3.26.311 2.18-.809 4.18-1.5 4.83z"/><path d="M375.775 8.312l-2.562 13.75 8.688 1.625v-2.125s-3.875-.625-4.344-1.438.156-7.375.344-8.375l.562-3.438s-1.751-.874-2.688.001z"/><path d="M387.712 8.374l-1.438 15.312s6.562.271 7.438.083l1.75-3.271s-4.719-.3-5.75-.875c-.635-.354.056-6.33.491-9.563.094-.697.517-1.364.321-1.687-.249-.411-2.812.001-2.812.001z"/></g></svg>