<?xml version="1.0" encoding="utf-8"?>
<!-- Generator: Adobe Illustrator 16.0.0, SVG Export Plug-In . SVG Version: 6.00 Build 0)  -->
<!DOCTYPE svg PUBLIC "-//W3C//DTD SVG 1.1//EN" "http://www.w3.org/Graphics/SVG/1.1/DTD/svg11.dtd">
<svg version="1.1" id="Layer_1" xmlns="http://www.w3.org/2000/svg" xmlns:xlink="http://www.w3.org/1999/xlink" x="0px" y="0px"
	 width="395.461px" height="33.719px" viewBox="0 0 395.461 33.719" enable-background="new 0 0 395.461 33.719"
	 xml:space="preserve">
<g>
	<path fill="#EA9B9B" stroke="#FFFFFF" d="M15.401,2.833c0,0-1.167-2.667-5.167-1.167s-5,1.167-8.167,7.667s-0.667,9,0,9.667
		c0.667,0.666,1.767,2.666,5.883,2.832l8.95-2l-1.626-4.208c0,0-4.688,4.25-7.708,3.542c-3.197-0.748-5.167-3.5-4.167-6
		s0.833-2.5,1.5-3.667s4.904-4.952,7-5.5C13.337,3.624,14.4,4.624,14.4,4.624L15.401,2.833z"/>
	<path fill="#EA9B9B" d="M32.337,7.874c0,0-0.812-3.438-1.625-3.938s-2.75-1.062-4.5,0.312s-3,2.688-3.125,4.438s0,3.938,1.75,5.312
		s6.625,4.25,7.125,5.188c0.699,1.311-0.75,3.25-2.25,3.25c-1.973,0-4.438-3.125-4.438-3.125l-1.562,3.125
		c0,0,1.938,3.062,4.812,2.75c1.078-0.117,2.191-0.366,3.182-0.747c1.65-0.635,2.959-1.636,3.193-3.003
		c0.375-2.188,0.812-4.438,0-5.188s-3.188-2.125-3.875-2.25s-2.75-1-3.25-1.812s-0.934-2.249-0.75-2.938
		c0.25-0.938,0.812-2.188,1.562-1.938l1.375,0.875L32.337,7.874z"/>
	<path fill="#EA9B9B" d="M52.587,4.874c0,0-0.562-2.5-1.25-3.312s-5-0.812-6.5,0.562s-3.062,2.688-3.25,5.062
		s-1.062,3.035,3.188,7.111c4.25,4.077,3.625,2.326,3.938,3.202c0.313,0.875-0.389,3.938-1.726,3.688
		c-1.337-0.25-2.337-1-3.337-1.062l-1.812-0.5l-0.062,3.176c0,0,4,2.824,7.5,0.699s3.75-3.812,3.75-4.125
		c0-0.312,0.875-2.188-0.812-4s-5.812-4.438-6.25-5.875s-0.584-2.542-0.147-3.104s3.272-1.146,3.522-0.708L52.587,4.874z"/>
	<path fill="#EA9B9B" d="M60.337,23.749c0,0-4.75,8.062-4.688,8.5c0.062,0.438,0.562,1.688,1.438,1.438s6.75-7.188,6.688-8.188
		S62.837,23.437,60.337,23.749z"/>
</g>
<g>
	<path fill="#EA9B9B" d="M101.02,17.249c-0.5-4,0.23-8.25-5.62-11.13c-3.56-1.75-6.38-1.87-8.38-1.5c-2,0.38-2.74,0.88-2.74,0.88
		l-0.5,18.19c0,0,12.12,2.521,14.87,0.601C101.4,22.379,101.52,21.249,101.02,17.249L101.02,17.249z M97.65,18.499
		c0,1.621-2.75,2-4.63,2.5c-1.87,0.5-5.12,0.381-5.74,0c-0.63-0.379,1.24-13.62,1.24-13.62s1.38-0.88,5.76,1
		C98.65,10.249,97.65,16.879,97.65,18.499z"/>
	<path fill="#EA9B9B" d="M111.78,15.249c0-0.5,3.24-1.18,3.62-1.65c0.38-0.48,2.38-6.1,0.88-8.6s-3.26-3.88-6.13-3.38l-3.87,1.88
		l-0.5,19.3h2.24c0,0-0.12-4.551,0.63-4.301s6.87,5.391,7.13,5.19c0.24-0.19,2-2.312,2-2.312S111.78,15.749,111.78,15.249z
		 M108.52,10.249l1-5.8c0,0,3.88,0.67,4.63,1.8s-0.5,3.37-1.75,4H108.52z"/>
	<path fill="#EA9B9B" d="M122.9,6.249c0,0-1.5,17.014,3.75,17.444c5.25,0.431,6.125-1.069,6.75-2.194s2.125-10.875,1.125-15.25
		h-1.75c0,0,0.013,14.367-3.994,13.625c-3.381-0.625-3.006-3.625-2.631-13.625H122.9z"/>
	<path fill="#EA9B9B" d="M152.9,7.749c0,0-2-3.5-4.75-2.375s-5.875,2.875-7,5.125s-1.5,6.625-0.875,8.75
		c0.625,2.125,1.875,3.644,4.5,4.446c2.625,0.804,5.375,0.679,7.375-1.821s1.875-6.479,1.25-6.865l-7.125-0.279l-0.5,1.145
		l4.125,0.875c0,0,1.833,4.519-3.01,5c-4.843,0.48-4.615-6.25-3.99-7.625l1-2.75c0,0,3.875-3.875,5.125-3.625L152.9,7.749z"/>
	<path fill="#EA9B9B" d="M174.775,8.874L172.4,5.151c0,0-3.25-0.723-5.375,0s-4.25,2.098-4.75,3.723s-0.25,5.414,1.75,5.77
		s6.125,0.48,6.5,1.98c0.375,1.5,0.875,4-1.25,4.75s-4.625-2.125-5-2.375s-1.25-0.375-1.125,0.5s2.125,4.394,3.5,4.196
		c1.375-0.196,6.25-0.821,7-2.571s1.625-6.625-2.25-7.375s-6.5-1.5-6.375-2.75s1.653-3.375,3.389-3.125s3.986,1.75,4.611,1.75
		L174.775,8.874z"/>
	<path fill="#EA9B9B" d="M211.9,16.009l-1.5-1.74l-2.88,3.479l-2.5-2.5c0,0,0.63-0.75,2.38-3s-0.5-5.87-2.899-6.63
		c-2.399-0.74-4.979,0.88-6.351,1.5c-1.37,0.63-0.87,1.88-1.04,3.13l3.29,4.75c-2.75,2.38-3.5,5.121-3.25,6.25
		c0.25,1.131,2.5,1.75,5.25,1.75l4.88-2.619l3.12,2.42l1.5-1.551l-3.44-2.5L211.9,16.009L211.9,16.009z M199.9,9.749
		c0.88-0.87,1.61-1.87,2.74-1.5c1.14,0.37,2.33,1.42,1.858,2.27c-0.479,0.86-1.858,2.36-1.858,2.36S199.02,10.619,199.9,9.749z
		 M200.525,20.624c-0.788-0.635,2.614-3.221,2.614-3.221s1.511,0.217,2.141,1.596C205.9,20.379,201.915,21.745,200.525,20.624z"/>
</g>
<g>
	<path fill="#EA9B9B" d="M249.78,15.999v-1c0,0,4.37,0.75,4.87-2s0.25-6.14-2.63-7.57c-2.87-1.43-5.74-1.57-8.37,0
		c0,0,0.37,7.95,0.75,9.69c0.38,1.76-0.38,6.5-0.38,7.129c0,0.631,1,0.25,1.88,0l0.88-4.75c0,0,1.62,0.121,2.12,0.881
		c0.5,0.74,4.5,5.32,4.5,5.32s2.5-1.201,2.5-1.58C255.9,21.749,250.78,15.879,249.78,15.999z M246.52,12.379v-5.88
		c1.63-0.88,3.38,0.25,4.76,1.25c1.37,1,0.37,3.87-0.76,4.63C249.4,13.119,246.52,12.379,246.52,12.379z"/>
	<path fill="#EA9B9B" d="M269.23,9.959c-0.75-0.88-1.25-2.71-5.33-2.46c0,0-3.83,2.67-4.42,5.42c-0.58,2.75-1.16,4.58,0,6.5
		c1.17,1.91,2.34,3.33,3.59,3.58s5.91-0.92,6.66-5.5C270.48,12.919,269.98,10.839,269.23,9.959z M267.73,17.169
		c-0.25,1.33-2.5,3.16-3.25,3.16s-1.41-0.83-2.25-1.58c-0.83-0.75-1.08-3.419-0.66-5.33c0.41-1.92,2.04-2.93,3.41-3.42
		c0.819-0.29,1.92,1.17,2.75,2.25C268.57,13.329,267.98,15.829,267.73,17.169z"/>
	<path fill="#EA9B9B" d="M285.067,7.917c0,0-2.666-3.5-4.833-2.667S274.65,7.416,273.4,13c-1.25,5.584,3.084,6.667,4.167,7.083
		s3.379,1.471,4.5,1.168c1.143-0.311,3.25-3,3-3.668l-1.667-1c0,0-1.332,2.333-3.416,1c-2.084-1.333-3.25-2.127-3.167-4.396
		s1.001-4.853,3.167-4.686l4,1.333L285.067,7.917z"/>
	<path fill="#EA9B9B" d="M291.984,4.304c0,0-0.751,3.03-0.834,4.363s-0.084,5.091-0.417,6.587l-1.249,6.997l3.083,0.549V18.5
		c0,0,0.25-0.75,1.25-0.084l6.417,5.283l2-2.396l-5.75-4.137l5.416-7.75l-0.416-3l-6.917,5.917c0,0-0.333,0.917-0.333-1.083
		l0.583-6.946L291.984,4.304L291.984,4.304z"/>
	<path fill="#EA9B9B" d="M308.317,1.749l-0.334,7.417c0,0,1,1,1.167,0.667s1.584-7.083,1.417-7.583S309.067,1.333,308.317,1.749
		L308.317,1.749z"/>
	<path fill="#EA9B9B" d="M318.15,4.304c0,0-1,9.528-1.25,10.362l-0.833,5.333c0,0,1.833,0.75,2.083,0s1.251-8.25,1.667-8.5
		s1.083,0.51,2.083,1.713l5.333,7.703c0,0,1.417,0.668,1.667,0c0.25-0.666,3.25-14.52,2.5-15.175h-1.75l-2.583,8.262
		c0,0-2-1.585-2.75-2.919l-3.75-6.779h-2.417V4.304z"/>
	<path fill="#EA9B9B" d="M339.067,0l-1.333,7.25c0,0,0.666,0.25,1.333-0.333s2.916-5.5,2.583-5.917L339.067,0z"/>
	<path fill="#EA9B9B" d="M351.07,16.169c0.33-0.17,2.58,0.25,3.08-1.5s2.33-5.42-1.42-6.42s-7.66-2.25-7.75,3.75
		c0,0-0.66,9.419-1.58,11.339c0,0,2.08,1.5,2.17,0.75c0.08-0.75,1-5.789,1.75-5.939s3.83,3.02,6.25,6.15c0,0,1.41-0.069,1.33-0.6
		c-0.08-0.531-2.67-4.201-3-4.861C351.57,18.168,350.73,16.339,351.07,16.169z M346.82,13.999c-0.59-0.5,0.33-3.33,0.33-3.33
		s0.33-1.58,0.83-1.92c0.5-0.33,4.59,1.5,4.75,1.92c0.17,0.42-0.5,2.67-1.83,3.33C349.57,14.669,347.4,14.499,346.82,13.999z"/>
	<path fill="#EA9B9B" d="M367.84,14.059c-0.562-3.62-3.631-3.68-3.631-3.68c-0.99-0.21-2.311,0.81-3.119,1.24
		c-0.812,0.44-2.69,5.57-2.881,6.44c-0.189,0.88-0.75,4.561,1.131,6.24c1.869,1.67,5.369,0.199,7.619-1.92
		C369.209,20.249,368.4,17.689,367.84,14.059z M364.709,21.209c-0.689,0.649-2.75,1.35-3.391,1.289c-0.63-0.06-1.17-0.939-1.54-3
		c-0.38-2.06,3.12-6.379,3.12-6.379c1.939-0.62,3,1.07,3.311,3.26C366.52,18.559,365.4,20.559,364.709,21.209L364.709,21.209z"/>
	<path fill="#EA9B9B" d="M375.775,8.312l-2.562,13.75l8.688,1.625v-2.125c0,0-3.875-0.625-4.344-1.438
		c-0.469-0.812,0.156-7.375,0.344-8.375l0.562-3.438C378.463,8.311,376.711,7.437,375.775,8.312z"/>
	<path fill="#EA9B9B" d="M387.711,8.374l-1.438,15.312c0,0,6.562,0.271,7.438,0.083l1.75-3.271c0,0-4.719-0.301-5.75-0.875
		c-0.635-0.354,0.057-6.331,0.492-9.563c0.094-0.697,0.517-1.364,0.32-1.687C390.275,7.962,387.711,8.374,387.711,8.374z"/>
</g>
</svg>
